<?xml version="1.0" standalone="no"?>
<svg
  width="600"
  height="600"
  viewBox="0 0 600 600"
  xmlns="http://www.w3.org/2000/svg"
>
  <g transform="translate(300,300)">
    <path d="M133.6,-214.3C171.6,-183.4,200,-143.8,222.8,-100C245.6,-56.1,262.9,-7.9,259.3,39.4C255.8,86.7,231.4,133,197.2,168.9C163,204.7,119,230,74.2,234.9C29.5,239.9,-16,224.5,-64.7,213.4C-113.5,202.3,-165.6,195.5,-192.1,165.9C-218.7,136.3,-219.7,84,-225.4,33.4C-231.1,-17.2,-241.6,-66.1,-229.9,-110.5C-218.3,-154.9,-184.5,-194.8,-142.6,-224C-100.6,-253.1,-50.3,-271.6,-1.3,-269.6C47.8,-267.6,95.5,-245.3,133.6,-214.3Z" fill="#71d2d0" />
  </g>
</svg>
  