<?xml version="1.0" standalone="no"?>
<svg
  width="600"
  height="600"
  viewBox="0 0 600 600"
  xmlns="http://www.w3.org/2000/svg"
>
  <g transform="translate(300,300)">
    <path d="M78.4,-124.2C94.1,-96.5,94.1,-63.5,125.4,-26.7C156.6,10.1,219.1,50.8,227.5,89.1C235.9,127.3,190.2,163.2,143.3,171.4C96.4,179.7,48.2,160.3,3.5,155.5C-41.1,150.6,-82.3,160.3,-125.1,150.7C-167.9,141.1,-212.3,112.3,-236.8,69.3C-261.2,26.4,-265.7,-30.7,-230.7,-55.4C-195.7,-80.1,-121.4,-72.4,-76.4,-90.6C-31.3,-108.8,-15.7,-152.9,7.8,-163.7C31.3,-174.5,62.7,-152,78.4,-124.2Z" fill="#8FDC97" />
  </g>
</svg>
  