<?xml version="1.0" standalone="no"?>
<svg
  width="600"
  height="600"
  viewBox="0 0 600 600"
  xmlns="http://www.w3.org/2000/svg"
>
  <g transform="translate(300,300)">
    <path d="M112.4,-124.9C151.6,-126.3,193.2,-101.3,193,-70.2C192.7,-39.1,150.6,-2,137.4,46.5C124.2,94.9,140,154.7,121.9,171C103.8,187.3,51.9,160.1,4.7,153.7C-42.5,147.2,-85,161.4,-116.9,149.6C-148.8,137.7,-170,99.9,-177.1,61.4C-184.2,23,-177.2,-16.2,-161.8,-49.2C-146.4,-82.2,-122.6,-109,-94.2,-111.2C-65.8,-113.3,-32.9,-90.6,1.9,-93.2C36.6,-95.8,73.3,-123.5,112.4,-124.9Z" fill="#8BDB9D" />
  </g>
</svg>
  